<?xml version="1.0" encoding="UTF-8" standalone="no"?>
<svg width="128px" height="128px" viewBox="0 0 128 128" version="1.1" xmlns="http://www.w3.org/2000/svg" xmlns:xlink="http://www.w3.org/1999/xlink" xmlns:sketch="http://www.bohemiancoding.com/sketch/ns">
    <!-- Generator: Sketch 3.4.1 (15681) - http://www.bohemiancoding.com/sketch -->
    <title>social-mail</title>
    <desc>Created with Sketch.</desc>
    <defs></defs>
    <g id="Page-1" stroke="none" stroke-width="1" fill="none" fill-rule="evenodd" sketch:type="MSPage">
        <g id="social-mail" sketch:type="MSArtboardGroup" fill="#B8474B">
            <g id="mail3" sketch:type="MSLayerGroup" transform="translate(0.000000, 15.000000)">
                <path d="M112.54776,0.314698949 L15.1574726,0.314698949 C6.79970757,0.314698949 0,6.82147435 0,14.8191568 L0,82.460116 C0,90.4577984 6.79970757,96.9645739 15.1574726,96.9645739 L112.54776,96.9645739 C120.905525,96.9645739 127.704898,90.4577984 127.704898,82.460116 L127.704898,14.8191568 C127.704898,6.82147435 120.905525,0.314698949 112.54776,0.314698949 L112.54776,0.314698949 Z M112.54776,84.1594903 L15.1574726,84.1594903 C13.9289399,84.1594903 12.8514674,83.3655831 12.8514674,82.460116 L12.8514674,23.7636003 L56.8985065,60.8181527 C57.8015248,61.5780924 58.9498486,61.9963589 60.1322611,61.9963589 L67.5713003,61.9966919 C68.7530444,61.9966919 69.9020366,61.5780924 70.805389,60.8181527 L114.854433,23.7622682 L114.854433,82.460782 C114.853765,83.3655831 113.775958,84.1594903 112.54776,84.1594903 L112.54776,84.1594903 Z M63.8526162,49.2818554 L21.0113838,13.1197825 L106.693849,13.1197825 L63.8526162,49.2818554 L63.8526162,49.2818554 Z" id="Shape" sketch:type="MSShapeGroup"></path>
            </g>
        </g>
    </g>
</svg>