<?xml version="1.0" encoding="UTF-8" standalone="no"?>
<svg width="128px" height="128px" viewBox="0 0 128 128" version="1.1" xmlns="http://www.w3.org/2000/svg" xmlns:xlink="http://www.w3.org/1999/xlink" xmlns:sketch="http://www.bohemiancoding.com/sketch/ns">
    <!-- Generator: Sketch 3.4.1 (15681) - http://www.bohemiancoding.com/sketch -->
    <title>social-tw</title>
    <desc>Created with Sketch.</desc>
    <defs></defs>
    <g id="Page-1" stroke="none" stroke-width="1" fill="none" fill-rule="evenodd" sketch:type="MSPage">
        <g id="social-tw" sketch:type="MSArtboardGroup" fill="#B8474B">
            <g id="twitter39" sketch:type="MSLayerGroup">
                <path d="M121.191489,0 L6.80851064,0 C3.04885106,0 0,3.04885106 0,6.80851064 L0,121.191489 C0,124.951149 3.04885106,128 6.80851064,128 L121.191489,128 C124.952511,128 128,124.951149 128,121.191489 L128,6.80851064 C128,3.04885106 124.952511,0 121.191489,0 L121.191489,0 Z M116.934809,31.730383 C114.045277,36.0565106 110.464,39.794383 106.290383,42.8473191 C106.323064,43.6861277 106.339404,44.5262979 106.339404,45.3732766 C106.339404,75.7596596 83.2190638,107.189106 44.5235745,107.189106 C32.6944681,107.189106 21.1785532,103.813447 11.2190638,97.4270638 C11.0120851,97.2949787 10.9235745,97.037617 11.008,96.8061277 C11.0910638,96.576 11.3266383,96.434383 11.5649362,96.4602553 C13.2384681,96.6590638 14.9446809,96.7584681 16.6427234,96.7584681 C25.8451064,96.7584681 34.5572766,93.9138723 41.9254468,88.5160851 C33.0920851,87.771234 25.5005957,81.792 22.7690213,73.266383 C22.7131915,73.088 22.7540426,72.8973617 22.8779574,72.7557447 C23.0005106,72.6154894 23.1897872,72.5569362 23.3708936,72.5882553 C25.8178723,73.0539574 28.3057021,73.0811915 30.706383,72.6944681 C21.5965957,69.8621277 15.1925106,61.3297021 15.1925106,51.6139574 L15.195234,51.3307234 C15.1993191,51.1455319 15.3000851,50.9766809 15.4580426,50.8868085 C15.6187234,50.7942128 15.8175319,50.7928511 15.9768511,50.8827234 C18.3502979,52.2008511 20.9838298,53.0491915 23.6772766,53.3719149 C18.4428936,49.1996596 15.3681702,42.8745532 15.3681702,36.1082553 C15.3681702,32.2042553 16.4030638,28.365617 18.3557447,25.0131064 C18.4428936,24.8646809 18.5981277,24.7652766 18.7710638,24.754383 C18.944,24.7366809 19.1114894,24.8115745 19.2190638,24.9477447 C29.9356596,38.0895319 45.696,46.1834894 62.5497872,47.2224681 C62.2665532,45.8062979 62.1249362,44.3492766 62.1249362,42.8772766 C62.1249362,30.7091064 72.0258723,20.8108936 84.1926809,20.8108936 C90.1787234,20.8108936 95.9564255,23.2701277 100.098723,27.5649362 C104.772085,26.6131064 109.218043,24.896 113.32766,22.4585532 C113.516936,22.3468936 113.752511,22.3645957 113.924085,22.4994043 C114.094298,22.6369362 114.163745,22.8643404 114.09566,23.0726809 C112.705362,27.428766 109.986043,31.2279149 106.339404,33.9717447 C109.774979,33.3739574 113.112511,32.3622128 116.282553,30.9569362 C116.49634,30.8588936 116.748255,30.9201702 116.899404,31.0985532 C117.050553,31.2782979 117.066894,31.5342979 116.934809,31.730383 L116.934809,31.730383 Z" id="Shape" sketch:type="MSShapeGroup"></path>
            </g>
        </g>
    </g>
</svg>